<svg xmlns="http://www.w3.org/2000/svg" xmlns:xlink="http://www.w3.org/1999/xlink" viewBox="0 0 1024 1024" hola_ext_inject="ready"><defs><path id="a" d="M1 0h1023v1023H1z"/></defs><clipPath id="b"><use xlink:href="#a" overflow="visible"/></clipPath><g clip-path="url(#b)"><defs><path id="c" d="M1 0h1023v1023H1z"/></defs><clipPath id="d"><use xlink:href="#c" overflow="visible"/></clipPath><g clip-path="url(#d)"><defs><path id="e" d="M1 0h1023v1023H1z"/></defs><clipPath id="f"><use xlink:href="#e" overflow="visible"/></clipPath><path clip-path="url(#f)" fill="#FFF" d="M695.9 288.8L512.4 472.3 259.8 219.7c-50.7-50.7-50.7-132.8 0-183.5s132.8-50.7 183.5 0l252.6 252.6z"/><path clip-path="url(#f)" fill="#FFF" d="M513.7 475.1L330.2 291.6 582.9 39c50.7-50.7 132.8-50.7 183.5 0 50.7 50.7 50.7 132.8 0 183.5L513.7 475.1zM476.4 509.5L293 692.9 40.4 440.3c-50.7-50.7-50.7-132.8 0-183.5 50.7-50.7 132.8-50.7 183.5 0l252.5 252.7z"/><path clip-path="url(#f)" fill="#FFF" d="M293 327.3l183.5 183.5-252.7 252.6C173.2 814 91 814 40.4 763.4s-50.7-132.8 0-183.5L293 327.3zM329.2 734.1l183.5-183.5 252.6 252.6c50.7 50.7 50.7 132.8 0 183.5-50.7 50.7-132.8 50.7-183.5 0L329.2 734.1z"/><path clip-path="url(#f)" fill="#FFF" d="M511.3 547.9l183.5 183.5-252.6 252.5c-50.7 50.7-132.8 50.7-183.5 0-50.7-50.7-50.7-132.8 0-183.5l252.6-252.5zM548.6 513.5L732.1 330l252.6 252.6c50.7 50.7 50.7 132.8 0 183.5-50.7 50.7-132.8 50.7-183.5 0L548.6 513.5z"/><path clip-path="url(#f)" fill="#FFF" d="M729.3 695.6L545.8 512.2l252.6-252.6c50.7-50.7 132.8-50.7 183.5 0 50.7 50.7 50.7 132.8 0 183.5L729.3 695.6z"/></g></g></svg>
